HIERARCHY
ROOT Hips
{
 OFFSET 0.000000 0.000000 0.000000
 CHANNELS 6 Xposition Yposition Zposition Yrotation Xrotation Zrotation
 JOINT Chest
 {
  OFFSET 0.000000 9.581000 -0.001100
  CHANNELS 3 Yrotation Xrotation Zrotation
  JOINT Chest2
  {
   OFFSET 0.000000 9.561100 0.002200
   CHANNELS 3 Yrotation Xrotation Zrotation
   JOINT Chest3
   {
    OFFSET 0.000000 9.521100 0.000000
    CHANNELS 3 Yrotation Xrotation Zrotation
    JOINT Chest4
    {
     OFFSET 0.000000 9.511400 0.000000
     CHANNELS 3 Yrotation Xrotation Zrotation
     JOINT Neck
     {
      OFFSET 0.000000 14.375100 0.000000
      CHANNELS 3 Yrotation Xrotation Zrotation
      JOINT Head
      {
       OFFSET 0.000000 8.901200 0.004600
       CHANNELS 3 Yrotation Xrotation Zrotation
       End Site
       {
        OFFSET 0.000000 16.962200 0.002400
       }
      }
     }
     JOINT RightCollar
     {
      OFFSET -2.920100 9.518800 0.000000
      CHANNELS 3 Yrotation Xrotation Zrotation
      JOINT RightShoulder
      {
       OFFSET -13.664500 0.000000 0.000000
       CHANNELS 3 Yrotation Xrotation Zrotation
       JOINT RightElbow
       {
        OFFSET 0.000000 -29.999200 0.000000
        CHANNELS 3 Yrotation Xrotation Zrotation
        JOINT RightWrist
        {
         OFFSET 0.000000 -24.253600 0.000000
         CHANNELS 3 Yrotation Xrotation Zrotation
         End Site
         {
          OFFSET 0.000000 -17.918900 0.000000
         }
        }
       }
      }
     }
     JOINT LeftCollar
     {
      OFFSET 2.920100 9.518800 0.000000
      CHANNELS 3 Yrotation Xrotation Zrotation
      JOINT LeftShoulder
      {
       OFFSET 13.664500 0.000000 0.000000
       CHANNELS 3 Yrotation Xrotation Zrotation
       JOINT LeftElbow
       {
        OFFSET 0.000000 -29.999200 0.000000
        CHANNELS 3 Yrotation Xrotation Zrotation
        JOINT LeftWrist
        {
         OFFSET 0.000000 -24.253600 0.000000
         CHANNELS 3 Yrotation Xrotation Zrotation
         End Site
         {
          OFFSET 0.000000 -17.918900 0.000000
         }
        }
       }
      }
     }
    }
   }
  }
 }
 JOINT RightHip
 {
  OFFSET -7.797300 0.005300 0.000500
  CHANNELS 3 Yrotation Xrotation Zrotation
  JOINT RightKnee
  {
   OFFSET 0.000000 -40.663400 -0.000500
   CHANNELS 3 Yrotation Xrotation Zrotation
   JOINT RightAnkle
   {
    OFFSET 0.000000 -39.523700 -0.000900
    CHANNELS 3 Yrotation Xrotation Zrotation
    JOINT RightToe
    {
     OFFSET 0.000000 -6.418000 14.485300
     CHANNELS 3 Yrotation Xrotation Zrotation
     End Site
     {
      OFFSET 0.000000 -1.465200 6.326400
     }
    }
   }
  }
 }
 JOINT LeftHip
 {
  OFFSET 7.797300 0.005300 0.000500
  CHANNELS 3 Yrotation Xrotation Zrotation
  JOINT LeftKnee
  {
   OFFSET 0.000000 -40.663400 -0.000500
   CHANNELS 3 Yrotation Xrotation Zrotation
   JOINT LeftAnkle
   {
    OFFSET 0.000000 -39.523700 -0.000900
    CHANNELS 3 Yrotation Xrotation Zrotation
    JOINT LeftToe
    {
     OFFSET 0.000000 -6.418000 14.485300
     CHANNELS 3 Yrotation Xrotation Zrotation
     End Site
     {
      OFFSET 0.000000 -1.465200 6.326400
     }
    }
   }
  }
 }
}
MOTION
Frames: 6
Frame Time: 0.008333
-22.014287 126.496454 66.115174 -172.496956 -29.714442 -0.931170 -3.292594 25.834505 0.421930 -0.535432 4.264594 0.173040 -0.869083 6.795177 0.259768 -2.681299 21.259699 0.474896 2.667778 13.429308 -2.110621 3.299298 -11.562239 -2.834867 -2.206170 -0.110647 -1.869012 -10.849387 -9.771057 2.418855 -89.026350 -18.324320 98.332769 -30.921173 -9.962946 -8.185633 -10.114785 -3.392114 -2.346151 -4.675415 -24.812215 8.332343 77.399470 -28.713196 -112.536474 19.719400 -26.385356 27.604882 -4.768923 -57.031871 3.277084 -36.823144 69.117364 -38.257197 19.873933 33.324253 10.148600 -0.000050 -0.021882 -0.000022 -10.489316 -47.118571 -8.846187 28.579934 72.206844 17.726516 2.784320 3.069457 8.448817 0.003706 0.006690 0.001642
-22.013782 126.496791 66.115012 -172.505015 -29.720927 -0.929720 -3.291860 25.841448 0.420069 -0.536373 4.265197 0.176442 -0.869936 6.800560 0.256198 -2.676893 21.257749 0.475031 2.669964 13.435781 -2.105000 3.303447 -11.565921 -2.834923 -2.211901 -0.111254 -1.875655 -10.861331 -9.774933 2.413745 -89.007011 -18.324703 98.335789 -30.907366 -9.940897 -8.171394 -10.119353 -3.397551 -2.341219 -4.662869 -24.806588 8.343719 77.394089 -28.697548 -112.553151 19.747058 -26.376907 27.586989 -4.780415 -57.041319 3.277043 -36.881826 69.084277 -38.319190 19.954240 33.404002 10.200233 0.000858 -0.020164 0.000380 -10.508208 -47.112426 -8.837107 28.596501 72.200776 17.736715 2.786073 3.069132 8.444616 0.000886 0.007884 0.000393
-22.011929 126.497531 66.113950 -172.523790 -29.732175 -0.931607 -3.272960 25.853356 0.429800 -0.551088 4.273197 0.173591 -0.859931 6.799636 0.258388 -2.673303 21.255850 0.473482 2.672437 13.438904 -2.100718 3.305405 -11.568751 -2.833751 -2.214457 -0.120025 -1.889458 -10.864083 -9.768370 2.421720 -89.001369 -18.338752 98.341995 -30.891143 -9.924556 -8.164768 -10.130160 -3.399633 -2.333260 -4.649097 -24.811921 8.356789 77.371446 -28.670392 -112.561435 19.743533 -26.390708 27.581915 -4.786564 -57.041596 3.287520 -36.920953 69.067692 -38.353549 19.974074 33.475967 10.233169 0.000236 -0.011241 0.000105 -10.527307 -47.100503 -8.815246 28.623530 72.194748 17.755965 2.785744 3.067656 8.442785 -0.003567 0.006669 -0.001581
-22.010441 126.497635 66.113907 -172.526160 -29.735492 -0.938968 -3.275487 25.860906 0.435032 -0.547182 4.271522 0.173742 -0.863264 6.802339 0.259260 -2.668899 21.264548 0.473041 2.672854 13.431636 -2.099050 3.307393 -11.569858 -2.834488 -2.214689 -0.135507 -1.892302 -10.864219 -9.765772 2.420681 -89.001769 -18.360633 98.347799 -30.875353 -9.917335 -8.167355 -10.135124 -3.415454 -2.327015 -4.644610 -24.825859 8.386804 77.330874 -28.637342 -112.568154 19.741740 -26.424977 27.584377 -4.795296 -57.046203 3.290463 -36.967407 69.047928 -38.390116 19.982658 33.541215 10.254593 -0.001704 -0.004863 -0.000755 -10.539969 -47.097009 -8.805554 28.645120 72.189653 17.794906 2.775225 3.070494 8.420956 0.003243 0.007363 0.001437
-22.009300 126.497633 66.113909 -172.530869 -29.737190 -0.943531 -3.277990 25.863592 0.437638 -0.542465 4.272028 0.174218 -0.866012 6.801886 0.260347 -2.667010 21.271491 0.474383 2.673728 13.426835 -2.099757 3.309358 -11.568249 -2.835225 -2.213098 -0.145800 -1.896985 -10.867786 -9.761841 2.417429 -88.997384 -18.380609 98.354485 -30.861757 -9.915528 -8.179702 -10.137158 -3.425148 -2.322178 -4.641608 -24.838149 8.394639 77.314355 -28.630275 -112.561687 19.760044 -26.431207 27.549524 -4.788576 -57.048391 3.285854 -37.019378 69.022217 -38.426696 19.995158 33.596390 10.270149 -0.002976 -0.001871 -0.001319 -10.561982 -47.100681 -8.787532 28.694103 72.190056 17.836795 2.772276 3.071054 8.420584 0.000955 0.004606 0.000423
-22.007380 126.497638 66.113661 -172.540163 -29.737933 -0.951092 -3.272526 25.865586 0.449005 -0.542424 4.272024 0.174172 -0.864898 6.799098 0.259675 -2.667807 21.274536 0.474523 2.675000 13.426699 -2.098802 3.310195 -11.564679 -2.835675 -2.209917 -0.155558 -1.903133 -10.898313 -9.742043 2.407503 -88.965546 -18.383457 98.370558 -30.862157 -9.919750 -8.189495 -10.136301 -3.441848 -2.307998 -4.637529 -24.840137 8.391340 77.307307 -28.620187 -112.548830 19.777645 -26.423478 27.515013 -4.776261 -57.048167 3.288022 -37.079741 68.989844 -38.467487 20.027881 33.659391 10.293504 -0.001969 0.002998 -0.000872 -10.577921 -47.103043 -8.762776 28.734675 72.192279 17.873235 2.768457 3.070930 8.420252 0.000538 0.001975 0.000238
